<svg width="64" height="64" viewBox="0 0 64 64" fill="none" xmlns="http://www.w3.org/2000/svg">
<line x1="10.5" y1="37.5" x2="53.5" y2="37.5" stroke="black" stroke-width="3" stroke-linecap="round"/>
<line x1="10.5" y1="49.5" x2="53.5" y2="49.5" stroke="black" stroke-width="3" stroke-linecap="round"/>
<line x1="41.5" y1="25.5" x2="53.5" y2="25.5" stroke="black" stroke-width="3" stroke-linecap="round"/>
<path d="M9.29119 13.9091H12.1932L16.0795 23.3949H16.233L20.1193 13.9091H23.0213V27H20.7457V18.0064H20.6243L17.0064 26.9616H15.3061L11.6882 17.9872H11.5668V27H9.29119V13.9091ZM30.0398 27H25.6037V13.9091H30.1293C31.429 13.9091 32.5455 14.1712 33.4787 14.6953C34.4162 15.2152 35.1364 15.9631 35.6392 16.9389C36.142 17.9148 36.3935 19.0824 36.3935 20.4418C36.3935 21.8054 36.1399 22.9773 35.6328 23.9574C35.13 24.9375 34.4034 25.6896 33.4531 26.2138C32.5071 26.7379 31.3693 27 30.0398 27ZM27.9751 24.9482H29.9247C30.8366 24.9482 31.5973 24.782 32.2067 24.4496C32.8161 24.1129 33.2741 23.6122 33.581 22.9474C33.8878 22.2784 34.0412 21.4432 34.0412 20.4418C34.0412 19.4403 33.8878 18.6094 33.581 17.9489C33.2741 17.2841 32.8203 16.7876 32.2195 16.4595C31.6229 16.1271 30.8814 15.9609 29.995 15.9609H27.9751V24.9482Z" fill="black"/>
</svg>
