<svg width="64" height="64" viewBox="0 0 64 64" fill="none" xmlns="http://www.w3.org/2000/svg">
<path d="M27 8C28.6569 8 30 9.34315 30 11V27C30 28.6569 28.6569 30 27 30H11C9.34315 30 8 28.6569 8 27V11C8 9.34315 9.34315 8 11 8H27ZM12 20C11.4477 20 11 20.4477 11 21C11 21.5523 11.4477 22 12 22H26C26.5523 22 27 21.5523 27 21C27 20.4477 26.5523 20 26 20H12ZM12 16C11.4477 16 11 16.4477 11 17C11 17.5523 11.4477 18 12 18H26C26.5523 18 27 17.5523 27 17C27 16.4477 26.5523 16 26 16H12ZM12 12C11.4477 12 11 12.4477 11 13C11 13.5523 11.4477 14 12 14H17C17.5523 14 18 13.5523 18 13C18 12.4477 17.5523 12 17 12H12Z" fill="#007AFF"/>
<rect opacity="0.5" x="34" y="8" width="22" height="22" rx="3" fill="#007AFF"/>
<rect opacity="0.5" x="34" y="34" width="22" height="22" rx="3" fill="#007AFF"/>
<rect opacity="0.5" x="8" y="34" width="22" height="22" rx="3" fill="#007AFF"/>
</svg>
