<svg width="64" height="64" viewBox="0 0 64 64" fill="none" xmlns="http://www.w3.org/2000/svg">
<path d="M27.233 37V26.8182H30.6733C31.4721 26.8182 32.125 26.9624 32.6321 27.2507C33.1425 27.5357 33.5204 27.9219 33.7656 28.4091C34.0109 28.8963 34.1335 29.4399 34.1335 30.0398C34.1335 30.6397 34.0109 31.1849 33.7656 31.6754C33.5237 32.166 33.1491 32.5571 32.642 32.8487C32.1349 33.1371 31.4853 33.2812 30.6932 33.2812H28.2273V32.1875H30.6534C31.2003 32.1875 31.6394 32.093 31.9709 31.9041C32.3023 31.7152 32.5426 31.46 32.6918 31.1385C32.8442 30.8137 32.9205 30.4474 32.9205 30.0398C32.9205 29.6321 32.8442 29.2675 32.6918 28.946C32.5426 28.6245 32.3007 28.3726 31.9659 28.1903C31.6312 28.0047 31.187 27.9119 30.6335 27.9119H28.4659V37H27.233ZM35.9606 37V29.3636H37.0941V30.517H37.1737C37.3129 30.1392 37.5647 29.8326 37.9293 29.5973C38.2939 29.362 38.7049 29.2443 39.1623 29.2443C39.2485 29.2443 39.3562 29.246 39.4854 29.2493C39.6147 29.2526 39.7125 29.2576 39.7788 29.2642V30.4574C39.739 30.4474 39.6478 30.4325 39.5053 30.4126C39.3661 30.3894 39.2186 30.3778 39.0629 30.3778C38.6916 30.3778 38.3602 30.4557 38.0685 30.6115C37.7802 30.764 37.5515 30.9761 37.3825 31.2479C37.2167 31.5163 37.1339 31.8229 37.1339 32.1676V37H35.9606ZM44.1388 37.1591C43.4031 37.1591 42.7683 36.9967 42.2347 36.6719C41.7044 36.3438 41.2951 35.8864 41.0067 35.2997C40.7217 34.7098 40.5792 34.0237 40.5792 33.2415C40.5792 32.4593 40.7217 31.7699 41.0067 31.1733C41.2951 30.5734 41.6961 30.1061 42.2099 29.7713C42.7269 29.4332 43.3301 29.2642 44.0195 29.2642C44.4173 29.2642 44.81 29.3305 45.1978 29.4631C45.5856 29.5956 45.9386 29.8111 46.2567 30.1094C46.5749 30.4044 46.8285 30.7955 47.0174 31.2827C47.2063 31.7699 47.3008 32.3698 47.3008 33.0824V33.5795H41.4144V32.5653H46.1076C46.1076 32.1345 46.0214 31.75 45.8491 31.4119C45.68 31.0739 45.4381 30.8071 45.1232 30.6115C44.8117 30.416 44.4438 30.3182 44.0195 30.3182C43.5522 30.3182 43.1478 30.4342 42.8065 30.6662C42.4684 30.8949 42.2082 31.1932 42.0259 31.5611C41.8436 31.929 41.7525 32.3234 41.7525 32.7443V33.4205C41.7525 33.9972 41.8519 34.486 42.0508 34.8871C42.253 35.2848 42.533 35.5881 42.891 35.7969C43.2489 36.0024 43.6649 36.1051 44.1388 36.1051C44.4471 36.1051 44.7255 36.062 44.9741 35.9759C45.226 35.8864 45.4431 35.7538 45.6254 35.5781C45.8076 35.3991 45.9485 35.1771 46.0479 34.9119L47.1815 35.2301C47.0621 35.6146 46.8616 35.9527 46.5799 36.2443C46.2982 36.5327 45.9502 36.758 45.5359 36.9205C45.1216 37.0795 44.6559 37.1591 44.1388 37.1591ZM51.9691 37.1591C51.3327 37.1591 50.771 36.9983 50.2837 36.6768C49.7965 36.352 49.4154 35.8946 49.1403 35.3047C48.8652 34.7114 48.7276 34.0104 48.7276 33.2017C48.7276 32.3996 48.8652 31.7036 49.1403 31.1136C49.4154 30.5237 49.7982 30.0679 50.2887 29.7464C50.7792 29.425 51.346 29.2642 51.989 29.2642C52.4862 29.2642 52.8789 29.3471 53.1673 29.5128C53.4589 29.6752 53.681 29.8608 53.8335 30.0696C53.9892 30.2751 54.1102 30.4441 54.1964 30.5767H54.2958V26.8182H55.4691V37H54.3356V35.8267H54.1964C54.1102 35.9659 53.9876 36.1416 53.8285 36.3537C53.6694 36.5625 53.4424 36.7498 53.1474 36.9155C52.8524 37.0779 52.4596 37.1591 51.9691 37.1591ZM52.1282 36.1051C52.5988 36.1051 52.9966 35.9825 53.3214 35.7372C53.6462 35.4886 53.8931 35.1456 54.0621 34.7081C54.2312 34.2673 54.3157 33.7585 54.3157 33.1818C54.3157 32.6117 54.2328 32.1129 54.0671 31.6854C53.9014 31.2545 53.6561 30.9197 53.3313 30.6811C53.0065 30.4392 52.6055 30.3182 52.1282 30.3182C51.631 30.3182 51.2167 30.4458 50.8853 30.701C50.5572 30.9529 50.3103 31.2959 50.1445 31.7301C49.9821 32.161 49.9009 32.6449 49.9009 33.1818C49.9009 33.7254 49.9838 34.2192 50.1495 34.6634C50.3185 35.1042 50.5671 35.4555 50.8952 35.7173C51.2267 35.9759 51.6377 36.1051 52.1282 36.1051Z" fill="#007AFF"/>
<path d="M27.233 20V9.81818H30.6733C31.4721 9.81818 32.125 9.96236 32.6321 10.2507C33.1425 10.5357 33.5204 10.9219 33.7656 11.4091C34.0109 11.8963 34.1335 12.4399 34.1335 13.0398C34.1335 13.6397 34.0109 14.1849 33.7656 14.6754C33.5237 15.166 33.1491 15.5571 32.642 15.8487C32.1349 16.1371 31.4853 16.2812 30.6932 16.2812H28.2273V15.1875H30.6534C31.2003 15.1875 31.6394 15.093 31.9709 14.9041C32.3023 14.7152 32.5426 14.46 32.6918 14.1385C32.8442 13.8137 32.9205 13.4474 32.9205 13.0398C32.9205 12.6321 32.8442 12.2675 32.6918 11.946C32.5426 11.6245 32.3007 11.3726 31.9659 11.1903C31.6312 11.0047 31.187 10.9119 30.6335 10.9119H28.4659V20H27.233ZM35.9606 20V12.3636H37.0941V13.517H37.1737C37.3129 13.1392 37.5647 12.8326 37.9293 12.5973C38.2939 12.362 38.7049 12.2443 39.1623 12.2443C39.2485 12.2443 39.3562 12.246 39.4854 12.2493C39.6147 12.2526 39.7125 12.2576 39.7788 12.2642V13.4574C39.739 13.4474 39.6478 13.4325 39.5053 13.4126C39.3661 13.3894 39.2186 13.3778 39.0629 13.3778C38.6916 13.3778 38.3602 13.4557 38.0685 13.6115C37.7802 13.764 37.5515 13.9761 37.3825 14.2479C37.2167 14.5163 37.1339 14.8229 37.1339 15.1676V20H35.9606ZM44.1388 20.1591C43.4031 20.1591 42.7683 19.9967 42.2347 19.6719C41.7044 19.3438 41.2951 18.8864 41.0067 18.2997C40.7217 17.7098 40.5792 17.0237 40.5792 16.2415C40.5792 15.4593 40.7217 14.7699 41.0067 14.1733C41.2951 13.5734 41.6961 13.1061 42.2099 12.7713C42.7269 12.4332 43.3301 12.2642 44.0195 12.2642C44.4173 12.2642 44.81 12.3305 45.1978 12.4631C45.5856 12.5956 45.9386 12.8111 46.2567 13.1094C46.5749 13.4044 46.8285 13.7955 47.0174 14.2827C47.2063 14.7699 47.3008 15.3698 47.3008 16.0824V16.5795H41.4144V15.5653H46.1076C46.1076 15.1345 46.0214 14.75 45.8491 14.4119C45.68 14.0739 45.4381 13.8071 45.1232 13.6115C44.8117 13.416 44.4438 13.3182 44.0195 13.3182C43.5522 13.3182 43.1478 13.4342 42.8065 13.6662C42.4684 13.8949 42.2082 14.1932 42.0259 14.5611C41.8436 14.929 41.7525 15.3234 41.7525 15.7443V16.4205C41.7525 16.9972 41.8519 17.486 42.0508 17.8871C42.253 18.2848 42.533 18.5881 42.891 18.7969C43.2489 19.0024 43.6649 19.1051 44.1388 19.1051C44.4471 19.1051 44.7255 19.062 44.9741 18.9759C45.226 18.8864 45.4431 18.7538 45.6254 18.5781C45.8076 18.3991 45.9485 18.1771 46.0479 17.9119L47.1815 18.2301C47.0621 18.6146 46.8616 18.9527 46.5799 19.2443C46.2982 19.5327 45.9502 19.758 45.5359 19.9205C45.1216 20.0795 44.6559 20.1591 44.1388 20.1591ZM51.9691 20.1591C51.3327 20.1591 50.771 19.9983 50.2837 19.6768C49.7965 19.352 49.4154 18.8946 49.1403 18.3047C48.8652 17.7114 48.7276 17.0104 48.7276 16.2017C48.7276 15.3996 48.8652 14.7036 49.1403 14.1136C49.4154 13.5237 49.7982 13.0679 50.2887 12.7464C50.7792 12.425 51.346 12.2642 51.989 12.2642C52.4862 12.2642 52.8789 12.3471 53.1673 12.5128C53.4589 12.6752 53.681 12.8608 53.8335 13.0696C53.9892 13.2751 54.1102 13.4441 54.1964 13.5767H54.2958V9.81818H55.4691V20H54.3356V18.8267H54.1964C54.1102 18.9659 53.9876 19.1416 53.8285 19.3537C53.6694 19.5625 53.4424 19.7498 53.1474 19.9155C52.8524 20.0779 52.4596 20.1591 51.9691 20.1591ZM52.1282 19.1051C52.5988 19.1051 52.9966 18.9825 53.3214 18.7372C53.6462 18.4886 53.8931 18.1456 54.0621 17.7081C54.2312 17.2673 54.3157 16.7585 54.3157 16.1818C54.3157 15.6117 54.2328 15.1129 54.0671 14.6854C53.9014 14.2545 53.6561 13.9197 53.3313 13.6811C53.0065 13.4392 52.6055 13.3182 52.1282 13.3182C51.631 13.3182 51.2167 13.4458 50.8853 13.701C50.5572 13.9529 50.3103 14.2959 50.1445 14.7301C49.9821 15.161 49.9009 15.6449 49.9009 16.1818C49.9009 16.7254 49.9838 17.2192 50.1495 17.6634C50.3185 18.1042 50.5671 18.4555 50.8952 18.7173C51.2267 18.9759 51.6377 19.1051 52.1282 19.1051Z" fill="#007AFF" fill-opacity="0.25"/>
<path d="M27.233 54V43.8182H30.6733C31.4721 43.8182 32.125 43.9624 32.6321 44.2507C33.1425 44.5357 33.5204 44.9219 33.7656 45.4091C34.0109 45.8963 34.1335 46.4399 34.1335 47.0398C34.1335 47.6397 34.0109 48.1849 33.7656 48.6754C33.5237 49.166 33.1491 49.5571 32.642 49.8487C32.1349 50.1371 31.4853 50.2812 30.6932 50.2812H28.2273V49.1875H30.6534C31.2003 49.1875 31.6394 49.093 31.9709 48.9041C32.3023 48.7152 32.5426 48.46 32.6918 48.1385C32.8442 47.8137 32.9205 47.4474 32.9205 47.0398C32.9205 46.6321 32.8442 46.2675 32.6918 45.946C32.5426 45.6245 32.3007 45.3726 31.9659 45.1903C31.6312 45.0047 31.187 44.9119 30.6335 44.9119H28.4659V54H27.233ZM35.9606 54V46.3636H37.0941V47.517H37.1737C37.3129 47.1392 37.5647 46.8326 37.9293 46.5973C38.2939 46.362 38.7049 46.2443 39.1623 46.2443C39.2485 46.2443 39.3562 46.246 39.4854 46.2493C39.6147 46.2526 39.7125 46.2576 39.7788 46.2642V47.4574C39.739 47.4474 39.6478 47.4325 39.5053 47.4126C39.3661 47.3894 39.2186 47.3778 39.0629 47.3778C38.6916 47.3778 38.3602 47.4557 38.0685 47.6115C37.7802 47.764 37.5515 47.9761 37.3825 48.2479C37.2167 48.5163 37.1339 48.8229 37.1339 49.1676V54H35.9606ZM44.1388 54.1591C43.4031 54.1591 42.7683 53.9967 42.2347 53.6719C41.7044 53.3438 41.2951 52.8864 41.0067 52.2997C40.7217 51.7098 40.5792 51.0237 40.5792 50.2415C40.5792 49.4593 40.7217 48.7699 41.0067 48.1733C41.2951 47.5734 41.6961 47.1061 42.2099 46.7713C42.7269 46.4332 43.3301 46.2642 44.0195 46.2642C44.4173 46.2642 44.81 46.3305 45.1978 46.4631C45.5856 46.5956 45.9386 46.8111 46.2567 47.1094C46.5749 47.4044 46.8285 47.7955 47.0174 48.2827C47.2063 48.7699 47.3008 49.3698 47.3008 50.0824V50.5795H41.4144V49.5653H46.1076C46.1076 49.1345 46.0214 48.75 45.8491 48.4119C45.68 48.0739 45.4381 47.8071 45.1232 47.6115C44.8117 47.416 44.4438 47.3182 44.0195 47.3182C43.5522 47.3182 43.1478 47.4342 42.8065 47.6662C42.4684 47.8949 42.2082 48.1932 42.0259 48.5611C41.8436 48.929 41.7525 49.3234 41.7525 49.7443V50.4205C41.7525 50.9972 41.8519 51.486 42.0508 51.8871C42.253 52.2848 42.533 52.5881 42.891 52.7969C43.2489 53.0024 43.6649 53.1051 44.1388 53.1051C44.4471 53.1051 44.7255 53.062 44.9741 52.9759C45.226 52.8864 45.4431 52.7538 45.6254 52.5781C45.8076 52.3991 45.9485 52.1771 46.0479 51.9119L47.1815 52.2301C47.0621 52.6146 46.8616 52.9527 46.5799 53.2443C46.2982 53.5327 45.9502 53.758 45.5359 53.9205C45.1216 54.0795 44.6559 54.1591 44.1388 54.1591ZM51.9691 54.1591C51.3327 54.1591 50.771 53.9983 50.2837 53.6768C49.7965 53.352 49.4154 52.8946 49.1403 52.3047C48.8652 51.7114 48.7276 51.0104 48.7276 50.2017C48.7276 49.3996 48.8652 48.7036 49.1403 48.1136C49.4154 47.5237 49.7982 47.0679 50.2887 46.7464C50.7792 46.425 51.346 46.2642 51.989 46.2642C52.4862 46.2642 52.8789 46.3471 53.1673 46.5128C53.4589 46.6752 53.681 46.8608 53.8335 47.0696C53.9892 47.2751 54.1102 47.4441 54.1964 47.5767H54.2958V43.8182H55.4691V54H54.3356V52.8267H54.1964C54.1102 52.9659 53.9876 53.1416 53.8285 53.3537C53.6694 53.5625 53.4424 53.7498 53.1474 53.9155C52.8524 54.0779 52.4596 54.1591 51.9691 54.1591ZM52.1282 53.1051C52.5988 53.1051 52.9966 52.9825 53.3214 52.7372C53.6462 52.4886 53.8931 52.1456 54.0621 51.7081C54.2312 51.2673 54.3157 50.7585 54.3157 50.1818C54.3157 49.6117 54.2328 49.1129 54.0671 48.6854C53.9014 48.2545 53.6561 47.9197 53.3313 47.6811C53.0065 47.4392 52.6055 47.3182 52.1282 47.3182C51.631 47.3182 51.2167 47.4458 50.8853 47.701C50.5572 47.9529 50.3103 48.2959 50.1445 48.7301C49.9821 49.161 49.9009 49.6449 49.9009 50.1818C49.9009 50.7254 49.9838 51.2192 50.1495 51.6634C50.3185 52.1042 50.5671 52.4555 50.8952 52.7173C51.2267 52.9759 51.6377 53.1051 52.1282 53.1051Z" fill="#007AFF" fill-opacity="0.25"/>
<rect x="11" y="10" width="10" height="10" rx="3" fill="#007AFF" fill-opacity="0.25"/>
<rect x="11" y="27" width="10" height="10" rx="3" fill="#007AFF"/>
<rect x="11" y="44" width="10" height="10" rx="3" fill="#007AFF" fill-opacity="0.25"/>
</svg>
